<svg width="415" height="90" viewBox="0 0 415 90" fill="none" xmlns="http://www.w3.org/2000/svg">
<path d="M23.75 24.1875H37.9375V49.0938C37.9375 54.3229 37.4688 58.3021 36.5312 61.0312C35.6146 63.7604 33.75 66.0729 30.9375 67.9688C28.1458 69.8646 24.5625 70.8125 20.1875 70.8125C15.5625 70.8125 11.9792 70.1875 9.4375 68.9375C6.89583 67.6875 4.92708 65.8646 3.53125 63.4688C2.15625 61.0521 1.34375 58.0729 1.09375 54.5312L14.625 52.6875C14.6458 54.7083 14.8229 56.2083 15.1562 57.1875C15.4896 58.1667 16.0521 58.9583 16.8438 59.5625C17.3854 59.9583 18.1562 60.1562 19.1562 60.1562C20.7396 60.1562 21.8958 59.5729 22.625 58.4062C23.375 57.2188 23.75 55.2292 23.75 52.4375V24.1875ZM53.1038 24.1875H91.0413V33.9688H67.2913V41.25H89.3225V50.5938H67.2913V59.625H91.7288V70H53.1038V24.1875ZM105.239 24.1875H118.458L135.708 49.5312V24.1875H149.051V70H135.708L118.551 44.8438V70H105.239V24.1875ZM164.311 24.1875H177.53L194.78 49.5312V24.1875H208.124V70H194.78L177.624 44.8438V70H164.311V24.1875Z" fill="white"/>
<path d="M272.688 24.1875H286.844V58.7188H308.938V70H272.688V24.1875ZM321.104 24.1875H359.041V33.9688H335.291V41.25H357.323V50.5938H335.291V59.625H359.729V70H321.104V24.1875ZM373.114 24.1875H411.051V33.9688H387.301V41.25H409.333V50.5938H387.301V59.625H411.739V70H373.114V24.1875Z" fill="white"/>
<path d="M244.469 23.4062L250.969 23.4062L239.469 70.75H233.031L244.469 23.4062Z" fill="#CC0000"/>
</svg>
